<?xml version="1.0" encoding="utf-8"?>
<!-- Generator: Adobe Illustrator 19.1.0, SVG Export Plug-In . SVG Version: 6.00 Build 0)  -->
<svg version="1.1" id="图层_1" xmlns="http://www.w3.org/2000/svg" xmlns:xlink="http://www.w3.org/1999/xlink" x="0px" y="0px"
	 viewBox="0 0 80 80" style="enable-background:new 0 0 80 80;" xml:space="preserve">
<style type="text/css">
	.st0{display:none;}
	.st1{fill:#040000;stroke:#49BAA7;stroke-width:2;stroke-miterlimit:10;}
</style>
<g>
	<g class="st0">
		
			<text transform="matrix(1 0 0 1.0078 -22.5195 0.9008)" style="display:inline;fill:#49BAA7; font-family:'MicrosoftYaHei'; font-size:19.3994px;glyph-orientation-vertical:0;writing-mode:tb;">行业应用</text>
	</g>
	<g>
		<polygon class="st1" points="70.4,79.1 10,79.1 1.4,70.4 1.4,9.6 10,0.9 70.4,0.9 79,9.6 79,70.4 		"/>
		<g>
			<g>
				<rect x="16" y="15.6" class="st1" width="10.9" height="11"/>
				<rect x="34.7" y="15.6" class="st1" width="10.9" height="11"/>
				<rect x="53.5" y="15.6" class="st1" width="10.9" height="11"/>
			</g>
			<g>
				<rect x="16" y="34.5" class="st1" width="10.9" height="11"/>
				<rect x="34.7" y="34.5" class="st1" width="10.9" height="11"/>
				<rect x="53.5" y="34.5" class="st1" width="10.9" height="11"/>
			</g>
			<g>
				<rect x="16" y="53.4" class="st1" width="10.9" height="11"/>
				<rect x="34.7" y="53.4" class="st1" width="10.9" height="11"/>
				<rect x="53.5" y="53.4" class="st1" width="10.9" height="11"/>
			</g>
		</g>
	</g>
</g>
</svg>
