<?xml version="1.0" encoding="utf-8"?>
<!-- Generator: Adobe Illustrator 19.1.0, SVG Export Plug-In . SVG Version: 6.00 Build 0)  -->
<svg version="1.1" id="图层_1" xmlns="http://www.w3.org/2000/svg" xmlns:xlink="http://www.w3.org/1999/xlink" x="0px" y="0px"
	 viewBox="0 0 80 80" style="enable-background:new 0 0 80 80;" xml:space="preserve">
<style type="text/css">
	.st0{fill:#040000;stroke:#49BAA7;stroke-width:2;stroke-miterlimit:10;}
	.st1{display:none;}
	.st2{display:inline;}
	.st3{fill:#49BAA7;}
</style>
<g>
	<polygon class="st0" points="69.2,78 10.9,78 2.5,69.7 2.5,11.3 10.9,3 69.2,3 77.5,11.3 77.5,69.7 	"/>
	<g class="st1">
		<g class="st2">
			<g id="XMLID_10_">
				<g>
					<path class="st3" d="M43.2,45.1v4.1l-6.9,0.5c0.2-0.8,0.3-1.6,0.3-2.5c0-0.9-0.1-1.7-0.3-2.5L43.2,45.1z"/>
					<path class="st3" d="M36.9,33.9l2.9,2.9L35.2,42c-0.9-1.4-2.1-2.7-3.5-3.5L36.9,33.9z"/>
					<path class="st3" d="M35.2,52.4l4.6,5.2l-2.9,2.9l-5.2-4.6C33.1,55,34.3,53.8,35.2,52.4z"/>
					<path class="st3" d="M36.3,44.7c0.2,0.8,0.3,1.6,0.3,2.5c0,0.9-0.1,1.7-0.3,2.5l-0.7,0v-5.1L36.3,44.7z"/>
					<path class="st3" d="M36.3,44.7l-0.7,0v5.1l0.7,0c-0.2,1-0.6,1.9-1.1,2.7l-0.5-0.5l-3.6,3.6l0.5,0.5c-0.8,0.5-1.7,0.9-2.7,1.1
						l0-0.7h-5.1l0,0.7c-1-0.2-1.9-0.6-2.7-1.1l0.5-0.5l-3.6-3.6l-0.5,0.5c-0.5-0.8-0.9-1.7-1.1-2.7l0.7,0v-5.1l-0.7,0
						c0.2-1,0.6-1.9,1.1-2.7l0.5,0.5l3.6-3.6l-0.5-0.5c0.8-0.5,1.7-0.9,2.7-1.1l0,0.7H29l0-0.7c1,0.2,1.9,0.6,2.7,1.1l-0.5,0.5
						l3.6,3.6l0.5-0.5C35.7,42.8,36.1,43.7,36.3,44.7z M31.5,47.2c0-2.8-2.3-5.1-5.1-5.1c-2.8,0-5.1,2.3-5.1,5.1
						c0,2.8,2.3,5.1,5.1,5.1C29.3,52.3,31.5,50,31.5,47.2z"/>
					<path class="st3" d="M35.2,42l-0.5,0.5l-3.6-3.6l0.5-0.5C33.1,39.3,34.3,40.5,35.2,42z"/>
					<path class="st3" d="M34.7,51.8l0.5,0.5c-0.9,1.4-2.1,2.7-3.5,3.5l-0.5-0.5L34.7,51.8z"/>
					<path class="st3" d="M29,37.3l0,0.7h-5.1l0-0.7c0.8-0.2,1.6-0.3,2.5-0.3S28.2,37.1,29,37.3z"/>
					<path class="st3" d="M29,57l-0.5,6.9h-4.1L24,57c0.8,0.2,1.6,0.3,2.5,0.3S28.2,57.2,29,57z"/>
					<path class="st3" d="M28.5,30.4l0.5,6.9c-0.8-0.2-1.6-0.3-2.5-0.3s-1.7,0.1-2.5,0.3l0.5-6.9H28.5z"/>
					<path class="st3" d="M23.9,56.3H29l0,0.7c-0.8,0.2-1.6,0.3-2.5,0.3S24.8,57.2,24,57L23.9,56.3z"/>
					<path class="st3" d="M21.8,38.9l-3.6,3.6L17.7,42c0.9-1.4,2.1-2.7,3.5-3.5L21.8,38.9z"/>
					<path class="st3" d="M21.8,55.4l-0.5,0.5c-1.4-0.9-2.7-2.1-3.5-3.5l0.5-0.5L21.8,55.4z"/>
					<path class="st3" d="M16,33.9l5.2,4.6c-1.4,0.9-2.7,2.1-3.5,3.5l-4.6-5.2L16,33.9z"/>
					<path class="st3" d="M21.3,55.9L16,60.5l-2.9-2.9l4.6-5.2C18.6,53.8,19.8,55,21.3,55.9z"/>
					<path class="st3" d="M17.3,44.6v5.1l-0.7,0c-0.2-0.8-0.3-1.6-0.3-2.5c0-0.9,0.1-1.7,0.3-2.5L17.3,44.6z"/>
					<path class="st3" d="M9.7,45.1l6.9-0.5c-0.2,0.8-0.3,1.6-0.3,2.5c0,0.9,0.1,1.7,0.3,2.5l-6.9-0.5V45.1z"/>
				</g>
				<g>
				</g>
			</g>
		</g>
		<g class="st2">
			<g id="XMLID_9_">
				<g>
					<path class="st3" d="M70.4,36.4l-1.1,3.9l-6.8-1.5c0.4-0.7,0.7-1.5,1-2.3c0.2-0.8,0.4-1.7,0.4-2.5L70.4,36.4z"/>
					<path class="st3" d="M69.4,27.4l-5.8,3.8c-0.4-1.6-1.3-3.1-2.4-4.4l6.3-2.9L69.4,27.4z"/>
					<path class="st3" d="M60.7,41.1l2.9,6.3l-3.6,2l-3.8-5.8C57.9,43.1,59.4,42.3,60.7,41.1z"/>
					<path class="st3" d="M63.5,36.5c-0.2,0.8-0.6,1.6-1,2.3l-0.7-0.1l1.4-4.9l0.7,0.2C63.8,34.9,63.7,35.7,63.5,36.5z"/>
					<path class="st3" d="M61.8,38.7l0.7,0.1c-0.5,0.9-1.1,1.6-1.8,2.3l-0.3-0.6L55.9,43l0.4,0.6c-0.9,0.3-1.9,0.4-2.9,0.3l0.2-0.7
						l-4.9-1.4l-0.2,0.7c-0.9-0.5-1.6-1.1-2.3-1.8l0.6-0.3l-2.5-4.4l-0.6,0.4c-0.2-0.9-0.4-1.9-0.3-2.9l0.7,0.2l1.4-4.9l-0.7-0.1
						c0.5-0.9,1.1-1.6,1.8-2.3l0.3,0.6l4.4-2.5l-0.4-0.6c0.9-0.2,1.9-0.4,2.9-0.3l-0.2,0.7l4.9,1.4l0.2-0.7c0.9,0.5,1.6,1.1,2.3,1.8
						l-0.6,0.3l2.5,4.4l0.6-0.4c0.2,0.9,0.4,1.9,0.3,2.9l-0.7-0.2L61.8,38.7z M52.3,38.6c2.7,0.8,5.5-0.8,6.3-3.5
						c0.8-2.7-0.8-5.5-3.5-6.3c-2.7-0.8-5.5,0.8-6.3,3.5C48,35,49.6,37.8,52.3,38.6z"/>
					<path class="st3" d="M60.4,40.5l0.3,0.6c-1.2,1.2-2.7,2-4.4,2.4L55.9,43L60.4,40.5z"/>
					<path class="st3" d="M63.5,31.1l-0.6,0.4l-2.5-4.4l0.6-0.3C62.3,28,63.1,29.5,63.5,31.1z"/>
					<path class="st3" d="M58.8,25l-0.2,0.7l-4.9-1.4l0.2-0.7c0.8,0,1.7,0.2,2.5,0.4C57.3,24.2,58.1,24.5,58.8,25z"/>
					<path class="st3" d="M60.3,18.2L58.8,25c-0.7-0.4-1.5-0.7-2.3-1c-0.8-0.2-1.7-0.4-2.5-0.4l2.3-6.5L60.3,18.2z"/>
					<path class="st3" d="M53.4,43.9L51,50.4l-3.9-1.1l1.5-6.8c0.7,0.4,1.5,0.7,2.3,1C51.7,43.7,52.6,43.9,53.4,43.9z"/>
					<path class="st3" d="M48.7,41.8l4.9,1.4l-0.2,0.7c-0.8,0-1.7-0.2-2.5-0.4c-0.8-0.2-1.6-0.6-2.3-1L48.7,41.8z"/>
					<path class="st3" d="M51.5,24.5L47.1,27l-0.3-0.6c1.2-1.2,2.7-2,4.4-2.4L51.5,24.5z"/>
					<path class="st3" d="M46.9,40.4l-0.6,0.3c-1.2-1.2-2-2.7-2.4-4.4l0.6-0.4L46.9,40.4z"/>
					<path class="st3" d="M47.4,18.1l3.8,5.8c-1.6,0.4-3.1,1.3-4.4,2.4L43.8,20L47.4,18.1z"/>
					<path class="st3" d="M46.3,40.7L40,43.6l-2-3.6l5.8-3.8C44.3,37.9,45.1,39.4,46.3,40.7z"/>
					<path class="st3" d="M45.6,28.8l-1.4,4.9l-0.7-0.2c0-0.8,0.2-1.7,0.4-2.5s0.6-1.6,1-2.3L45.6,28.8z"/>
					<path class="st3" d="M38.2,27.1l6.8,1.5c-0.4,0.7-0.7,1.5-1,2.3s-0.4,1.7-0.4,2.5L37,31.1L38.2,27.1z"/>
				</g>
				<g>
				</g>
			</g>
		</g>
	</g>
</g>
</svg>
