<?xml version="1.0" encoding="utf-8"?>
<!-- Generator: Adobe Illustrator 19.1.0, SVG Export Plug-In . SVG Version: 6.00 Build 0)  -->
<svg version="1.1" id="图层_1" xmlns="http://www.w3.org/2000/svg" xmlns:xlink="http://www.w3.org/1999/xlink" x="0px" y="0px"
	 viewBox="0 0 325 385" style="enable-background:new 0 0 325 385;" xml:space="preserve">
<style type="text/css">
	.st0{fill:#040000;}
	.st1{fill:none;stroke:#49BAA7;stroke-width:3;stroke-miterlimit:10;}
	.st2{fill:none;stroke:#49BAA7;stroke-miterlimit:10;}
</style>
<g>
	<g>
		<polygon class="st0" points="311,383 1.3,383 1.3,336.8 12.3,323.7 12.3,194 1.3,179.3 1.3,17.2 14.1,2 311,2 323.7,17.2 
			323.7,366 		"/>
		<polygon class="st1" points="311,383 1.3,383 1.3,336.8 12.3,323.7 12.3,194 1.3,179.3 1.3,17.2 14.1,2 311,2 323.7,17.2 
			323.7,366 		"/>
	</g>
	<g>
		<polygon class="st0" points="7.2,377.1 7.2,339 18.2,325.8 18.2,192 7.2,177.4 7.2,19.4 16.8,7.9 308.3,7.9 317.8,19.4 
			317.8,364.1 308.1,377.1 		"/>
		<polygon class="st2" points="7.2,377.1 7.2,339 18.2,325.8 18.2,192 7.2,177.4 7.2,19.4 16.8,7.9 308.3,7.9 317.8,19.4 
			317.8,364.1 308.1,377.1 		"/>
	</g>
</g>
</svg>
