<?xml version="1.0" encoding="utf-8"?>
<!-- Generator: Adobe Illustrator 19.1.0, SVG Export Plug-In . SVG Version: 6.00 Build 0)  -->
<svg version="1.1" id="图层_1" xmlns="http://www.w3.org/2000/svg" xmlns:xlink="http://www.w3.org/1999/xlink" x="0px" y="0px"
	 viewBox="0 0 705 370" style="enable-background:new 0 0 705 370;" xml:space="preserve">
<style type="text/css">
	.st0{opacity:0.3;}
	.st1{fill:url(#SVGID_1_);}
	.st2{fill:none;stroke:#49BAA7;stroke-width:3;stroke-miterlimit:10;}
</style>
<g class="st0">
	<linearGradient id="SVGID_1_" gradientUnits="userSpaceOnUse" x1="352.2356" y1="357.1745" x2="352.2356" y2="-5.7595">
		<stop  offset="0" style="stop-color:#040000"/>
		<stop  offset="1" style="stop-color:#026670"/>
	</linearGradient>
	<polygon class="st1" points="688.3,366.3 244.9,366.3 221.2,351.7 82.5,351.7 57,366.3 17.4,366.3 17.4,148.1 4.7,136.7 4.7,15.7 
		17.4,3.4 17.4,3.4 688.3,3.4 688.3,163 699.7,177.6 699.7,307.1 688.3,320.2 	"/>
</g>
<g>
	<polygon class="st2" points="688.3,366.3 244.9,366.3 221.2,351.7 82.5,351.7 57,366.3 17.4,366.3 17.4,148.1 4.7,136.7 4.7,15.7 
		17.4,3.4 17.4,3.4 171.1,3.4 688.3,3.4 688.3,163 699.7,177.6 699.7,307.1 688.3,320.2 	"/>
</g>
</svg>
