<?xml version="1.0" encoding="utf-8"?>
<!-- Generator: Adobe Illustrator 19.1.0, SVG Export Plug-In . SVG Version: 6.00 Build 0)  -->
<svg version="1.1" id="图层_1" xmlns="http://www.w3.org/2000/svg" xmlns:xlink="http://www.w3.org/1999/xlink" x="0px" y="0px"
	 viewBox="0 0 474 393" style="enable-background:new 0 0 474 393;" xml:space="preserve">
<style type="text/css">
	.st0{opacity:0.3;}
	.st1{fill:url(#SVGID_1_);}
	.st2{fill:none;stroke:#49BAA7;stroke-width:3;stroke-miterlimit:10;}
	.st3{fill:none;stroke:#49BAA7;stroke-miterlimit:10;}
</style>
<g class="st0">
	<linearGradient id="SVGID_1_" gradientUnits="userSpaceOnUse" x1="236.6543" y1="381.3797" x2="236.6543" y2="-7.1029">
		<stop  offset="0" style="stop-color:#040000"/>
		<stop  offset="1" style="stop-color:#026670"/>
	</linearGradient>
	<polygon class="st1" points="459.2,391.2 243.3,391.2 219.5,376.5 80.5,376.5 55,391.2 15.4,391.2 15.4,172.5 2.7,161.1 2.7,39.9 
		15.4,27.5 15.4,2.7 121.7,2.7 169.4,27.5 459.2,27.5 459.2,187.4 470.7,202.1 470.7,331.8 459.2,345 	"/>
</g>
<g>
	<polygon class="st2" points="459.2,391.2 243.3,391.2 219.5,376.5 80.5,376.5 55,391.2 15.4,391.2 15.4,172.5 2.7,161.1 2.7,39.9 
		15.4,27.5 15.4,2.7 121.7,2.7 169.4,27.5 459.2,27.5 459.2,187.4 470.7,202.1 470.7,331.8 459.2,345 	"/>
</g>
<line class="st3" x1="15.3" y1="256.9" x2="470.7" y2="256.9"/>
<line class="st3" x1="2.7" y1="147.6" x2="459.2" y2="147.6"/>
</svg>
