<?xml version="1.0" encoding="utf-8"?>
<!-- Generator: Adobe Illustrator 19.1.0, SVG Export Plug-In . SVG Version: 6.00 Build 0)  -->
<svg version="1.1" id="图层_1" xmlns="http://www.w3.org/2000/svg" xmlns:xlink="http://www.w3.org/1999/xlink" x="0px" y="0px"
	 viewBox="0 0 100 600" style="enable-background:new 0 0 100 600;" xml:space="preserve">
<style type="text/css">
	.st0{display:none;}
	.st1{fill:#040000;stroke:#49BAA7;stroke-width:2;stroke-miterlimit:10;}
	.st2{fill:none;stroke:#49BAA7;stroke-width:4;stroke-miterlimit:10;}
	.st3{fill:#49BAA7;}
</style>
<g>
	<g class="st0">
		
			<text transform="matrix(1 0 0 1 -23.3313 9.6216)" style="display:inline;fill:#49BAA7; font-family:'MicrosoftYaHei'; font-size:20px;glyph-orientation-vertical:0;writing-mode:tb;">行业应用</text>
	</g>
	<g>
		<polygon class="st1" points="72.4,89.6 10.2,89.6 1.3,80.7 1.3,18.5 10.2,9.6 72.4,9.6 81.3,18.5 81.3,80.7 		"/>
		<g>
			<g>
				<rect x="16.3" y="24.6" class="st1" width="11.3" height="11.3"/>
				<rect x="35.7" y="24.6" class="st1" width="11.3" height="11.3"/>
				<rect x="55.1" y="24.6" class="st1" width="11.3" height="11.3"/>
			</g>
			<g>
				<rect x="16.3" y="44" class="st1" width="11.3" height="11.3"/>
				<rect x="35.7" y="44" class="st1" width="11.3" height="11.3"/>
				<rect x="55.1" y="44" class="st1" width="11.3" height="11.3"/>
			</g>
			<g>
				<rect x="16.3" y="63.4" class="st1" width="11.3" height="11.3"/>
				<rect x="35.7" y="63.4" class="st1" width="11.3" height="11.3"/>
				<rect x="55.1" y="63.4" class="st1" width="11.3" height="11.3"/>
			</g>
		</g>
	</g>
</g>
<g>
	<g class="st0">
		
			<text transform="matrix(1 0 0 1 -23.3313 284.3253)" style="display:inline;fill:#49BAA7; font-family:'MicrosoftYaHei'; font-size:20px;glyph-orientation-vertical:0;writing-mode:tb;">支撑技术</text>
	</g>
	<g>
		<polygon class="st1" points="72.4,364.3 10.2,364.3 1.3,355.4 1.3,293.2 10.2,284.3 72.4,284.3 81.3,293.2 81.3,355.4 		"/>
		<g>
			<rect x="36.3" y="299.3" class="st1" width="20" height="10"/>
			<rect x="16.3" y="329.3" class="st1" width="10" height="20"/>
			<rect x="36.3" y="329.3" class="st1" width="10" height="20"/>
			<rect x="56.3" y="329.3" class="st1" width="10" height="20"/>
			<polyline class="st2" points="21.3,329.3 21.3,319.8 61.3,319.8 61.3,329.3 			"/>
			<line class="st2" x1="46.3" y1="309.3" x2="46.3" y2="319.8"/>
			<line class="st2" x1="41.3" y1="329.3" x2="41.3" y2="319.8"/>
		</g>
	</g>
</g>
<g>
	<g class="st0">
		
			<text transform="matrix(1 0 0 1 -23.3313 146.9742)" style="display:inline;fill:#49BAA7; font-family:'MicrosoftYaHei'; font-size:20px;glyph-orientation-vertical:0;writing-mode:tb;">系统模块</text>
	</g>
	<g>
		<polygon class="st1" points="72.4,227 10.2,227 1.3,218.1 1.3,155.9 10.2,147 72.4,147 81.3,155.9 81.3,218.1 		"/>
		<g>
			<g>
				<g id="XMLID_1_">
					<g>
						<path class="st3" d="M44.7,191.9v4.3l-7.4,0.5c0.2-0.9,0.3-1.7,0.3-2.7c0-0.9-0.1-1.8-0.3-2.7L44.7,191.9z"/>
						<path class="st3" d="M38,179.9L41,183l-4.9,5.6c-0.9-1.5-2.2-2.8-3.8-3.8L38,179.9z"/>
						<path class="st3" d="M36.2,199.6l4.9,5.6l-3.1,3.1l-5.6-4.9C33.9,202.5,35.2,201.2,36.2,199.6z"/>
						<path class="st3" d="M37.4,191.4c0.2,0.9,0.3,1.7,0.3,2.7c0,0.9-0.1,1.8-0.3,2.7l-0.8,0v-5.4L37.4,191.4z"/>
						<path class="st3" d="M37.4,191.4l-0.8,0v5.4l0.8,0c-0.3,1-0.7,2-1.2,2.9l-0.5-0.6l-3.8,3.8l0.6,0.5c-0.9,0.5-1.9,0.9-2.9,1.2
							l0-0.8h-5.4l0,0.8c-1-0.3-2-0.7-2.9-1.2l0.6-0.5l-3.8-3.8l-0.5,0.6c-0.5-0.9-0.9-1.9-1.2-2.9l0.8,0v-5.4l-0.8,0
							c0.3-1,0.7-2,1.2-2.9l0.5,0.6l3.8-3.8l-0.6-0.5c0.9-0.5,1.9-0.9,2.9-1.2l0,0.8h5.4l0-0.8c1,0.3,2,0.7,2.9,1.2l-0.6,0.5
							l3.8,3.8l0.5-0.6C36.7,189.4,37.1,190.4,37.4,191.4z M32.3,194.1c0-3-2.4-5.4-5.4-5.4c-3,0-5.4,2.4-5.4,5.4
							c0,3,2.4,5.4,5.4,5.4C29.8,199.5,32.3,197.1,32.3,194.1z"/>
						<path class="st3" d="M32.4,184.8c1.5,0.9,2.8,2.2,3.8,3.8l-0.5,0.6l-3.8-3.8L32.4,184.8z"/>
						<path class="st3" d="M36.2,199.6c-0.9,1.5-2.2,2.8-3.8,3.8l-0.6-0.5l3.8-3.8L36.2,199.6z"/>
						<path class="st3" d="M29.5,183.6l0,0.8h-5.4l0-0.8c0.9-0.2,1.7-0.3,2.7-0.3C27.8,183.3,28.7,183.4,29.5,183.6z"/>
						<path class="st3" d="M29.5,204.6L29,212h-4.3l-0.5-7.4c0.9,0.2,1.7,0.3,2.7,0.3C27.8,204.9,28.7,204.8,29.5,204.6z"/>
						<path class="st3" d="M29,176.2l0.5,7.4c-0.9-0.2-1.7-0.3-2.7-0.3c-0.9,0-1.8,0.1-2.7,0.3l0.5-7.4H29z"/>
						<path class="st3" d="M24.1,203.8h5.4l0,0.8c-0.9,0.2-1.7,0.3-2.7,0.3c-0.9,0-1.8-0.1-2.7-0.3L24.1,203.8z"/>
						<path class="st3" d="M17.6,188.5c0.9-1.5,2.2-2.8,3.8-3.8l0.6,0.5l-3.8,3.8L17.6,188.5z"/>
						<path class="st3" d="M21.3,184.8c-1.5,0.9-2.8,2.2-3.8,3.8l-4.9-5.6l3.1-3.1L21.3,184.8z"/>
						<path class="st3" d="M21.3,203.4l-5.6,4.9l-3.1-3.1l4.9-5.6C18.5,201.2,19.8,202.5,21.3,203.4z"/>
						<path class="st3" d="M18,199.1l3.8,3.8l-0.6,0.5c-1.5-0.9-2.8-2.2-3.8-3.8L18,199.1z"/>
						<path class="st3" d="M17.1,191.4v5.4l-0.8,0c-0.2-0.9-0.3-1.7-0.3-2.7c0-0.9,0.1-1.8,0.3-2.7L17.1,191.4z"/>
						<path class="st3" d="M9,191.9l7.4-0.5c-0.2,0.9-0.3,1.7-0.3,2.7c0,0.9,0.1,1.8,0.3,2.7L9,196.3V191.9z"/>
					</g>
					<g>
					</g>
				</g>
			</g>
			<g>
				<g id="XMLID_2_">
					<g>
						<path class="st3" d="M73.7,182.6l-1.2,4.2l-7.2-1.6c0.4-0.8,0.8-1.6,1.1-2.5c0.3-0.9,0.4-1.8,0.4-2.6L73.7,182.6z"/>
						<path class="st3" d="M72.6,173l-6.2,4c-0.5-1.7-1.3-3.3-2.6-4.7l6.7-3.1L72.6,173z"/>
						<path class="st3" d="M63.3,187.6l3.1,6.7l-3.8,2.1l-4-6.2C60.4,189.8,62,188.9,63.3,187.6z"/>
						<path class="st3" d="M66.3,182.7c-0.3,0.9-0.6,1.7-1.1,2.5l-0.7-0.2l1.5-5.2l0.7,0.3C66.7,181,66.6,181.9,66.3,182.7z"/>
						<path class="st3" d="M64.5,185l0.7,0.2c-0.5,0.9-1.2,1.7-1.9,2.4L63,187l-4.7,2.6l0.4,0.6c-1,0.3-2,0.4-3.1,0.4l0.3-0.7
							l-5.2-1.5l-0.2,0.7c-0.9-0.5-1.7-1.2-2.4-2l0.7-0.3l-2.6-4.7l-0.6,0.4c-0.3-1-0.4-2-0.4-3.1l0.7,0.3l1.5-5.2l-0.7-0.2
							c0.5-0.9,1.2-1.7,1.9-2.4l0.3,0.7l4.7-2.6l-0.4-0.6c1-0.3,2-0.4,3.1-0.4l-0.3,0.7l5.2,1.5l0.2-0.7c0.9,0.5,1.7,1.2,2.4,1.9
							l-0.7,0.3l2.6,4.7l0.6-0.4c0.3,1,0.4,2,0.4,3.1l-0.7-0.3L64.5,185z M54.4,185c2.9,0.8,5.9-0.8,6.7-3.7
							c0.8-2.9-0.8-5.9-3.7-6.7c-2.9-0.8-5.9,0.8-6.7,3.7C49.9,181.1,51.5,184.1,54.4,185z"/>
						<path class="st3" d="M63,187l0.3,0.7c-1.3,1.2-2.9,2.1-4.7,2.6l-0.4-0.6L63,187z"/>
						<path class="st3" d="M66.4,177l-0.6,0.4l-2.6-4.7l0.7-0.3C65,173.6,65.9,175.2,66.4,177z"/>
						<path class="st3" d="M61.4,170.4l-0.2,0.7l-5.2-1.5l0.3-0.7c0.9,0,1.8,0.2,2.6,0.4S60.6,169.9,61.4,170.4z"/>
						<path class="st3" d="M62.9,163.2l-1.6,7.2c-0.8-0.4-1.6-0.8-2.5-1.1s-1.8-0.4-2.6-0.4l2.5-7L62.9,163.2z"/>
						<path class="st3" d="M55.6,190.6l-2.5,6.9l-4.2-1.2l1.6-7.2c0.8,0.4,1.6,0.8,2.5,1.1C53.8,190.4,54.7,190.6,55.6,190.6z"/>
						<path class="st3" d="M50.6,188.4l5.2,1.5l-0.3,0.7c-0.9,0-1.8-0.2-2.6-0.4c-0.9-0.3-1.7-0.6-2.5-1.1L50.6,188.4z"/>
						<path class="st3" d="M48.5,171.8c1.3-1.2,2.9-2.1,4.7-2.6l0.4,0.6l-4.7,2.6L48.5,171.8z"/>
						<path class="st3" d="M53.2,169.3c-1.7,0.5-3.3,1.3-4.7,2.6l-3.1-6.7l3.8-2.1L53.2,169.3z"/>
						<path class="st3" d="M48,187.2l-6.7,3.1l-2.1-3.8l6.2-4C45.9,184.2,46.8,185.8,48,187.2z"/>
						<path class="st3" d="M46.1,182.1l2.6,4.7l-0.7,0.3c-1.2-1.3-2.1-2.9-2.6-4.7L46.1,182.1z"/>
						<path class="st3" d="M47.3,174.5l-1.5,5.2l-0.7-0.3c0-0.9,0.2-1.8,0.4-2.6c0.3-0.9,0.6-1.7,1.1-2.5L47.3,174.5z"/>
						<path class="st3" d="M39.3,172.7l7.2,1.6c-0.4,0.8-0.8,1.6-1.1,2.5c-0.3,0.9-0.4,1.8-0.4,2.6l-7-2.5L39.3,172.7z"/>
					</g>
					<g>
					</g>
				</g>
			</g>
		</g>
	</g>
</g>
</svg>
