<?xml version="1.0" encoding="utf-8"?>
<!-- Generator: Adobe Illustrator 19.1.0, SVG Export Plug-In . SVG Version: 6.00 Build 0)  -->
<svg version="1.1" id="图层_1" xmlns="http://www.w3.org/2000/svg" xmlns:xlink="http://www.w3.org/1999/xlink" x="0px" y="0px"
	 viewBox="0 0 80 80" style="enable-background:new 0 0 80 80;" xml:space="preserve">
<style type="text/css">
	.st0{fill:#040000;stroke:#49BAA7;stroke-width:2;stroke-miterlimit:10;}
	.st1{fill:#49BAA7;}
</style>
<g>
	<polygon class="st0" points="70.3,79 9.7,79 1,70.3 1,9.7 9.7,1 70.3,1 79,9.7 79,70.3 	"/>
	<g>
		<g>
			<g id="XMLID_1_">
				<g>
					<path class="st1" d="M43.3,44.8v4.2l-7.2,0.5c0.2-0.8,0.3-1.7,0.3-2.6c0-0.9-0.1-1.8-0.3-2.6L43.3,44.8z"/>
					<path class="st1" d="M36.7,33.1l3,3L35,41.5c-0.9-1.5-2.2-2.8-3.7-3.7L36.7,33.1z"/>
					<path class="st1" d="M35,52.3l4.7,5.4l-3,3L31.3,56C32.8,55.1,34.1,53.9,35,52.3z"/>
					<path class="st1" d="M36.1,44.3c0.2,0.8,0.3,1.7,0.3,2.6c0,0.9-0.1,1.8-0.3,2.6l-0.7,0v-5.3L36.1,44.3z"/>
					<path class="st1" d="M36.1,44.3l-0.7,0v5.3l0.7,0c-0.3,1-0.6,1.9-1.2,2.8l-0.5-0.5l-3.7,3.7l0.5,0.5c-0.9,0.5-1.8,0.9-2.8,1.2
						l0-0.7h-5.3l0,0.7c-1-0.3-1.9-0.7-2.8-1.2l0.5-0.5l-3.7-3.7l-0.5,0.5c-0.5-0.9-0.9-1.8-1.2-2.8l0.7,0v-5.3l-0.7,0
						c0.3-1,0.6-1.9,1.2-2.8l0.5,0.5l3.7-3.7l-0.5-0.5c0.9-0.5,1.8-0.9,2.8-1.2l0,0.7h5.3l0-0.7c1,0.3,1.9,0.7,2.8,1.2l-0.5,0.5
						l3.7,3.7l0.5-0.5C35.5,42.4,35.9,43.3,36.1,44.3z M31.2,46.9c0-2.9-2.4-5.3-5.3-5.3c-2.9,0-5.3,2.4-5.3,5.3
						c0,2.9,2.4,5.3,5.3,5.3C28.8,52.2,31.2,49.9,31.2,46.9z"/>
					<path class="st1" d="M31.3,37.9c1.5,0.9,2.8,2.2,3.7,3.7l-0.5,0.5l-3.7-3.7L31.3,37.9z"/>
					<path class="st1" d="M35,52.3c-0.9,1.5-2.2,2.8-3.7,3.7l-0.5-0.5l3.7-3.7L35,52.3z"/>
					<path class="st1" d="M28.5,36.7l0,0.7h-5.3l0-0.7c0.8-0.2,1.7-0.3,2.6-0.3S27.6,36.5,28.5,36.7z"/>
					<path class="st1" d="M28.5,57.2L28,64.4h-4.2l-0.5-7.2c0.8,0.2,1.7,0.3,2.6,0.3C26.8,57.5,27.6,57.4,28.5,57.2z"/>
					<path class="st1" d="M28,29.5l0.5,7.2c-0.8-0.2-1.7-0.3-2.6-0.3s-1.8,0.1-2.6,0.3l0.5-7.2H28z"/>
					<path class="st1" d="M23.2,56.4h5.3l0,0.7c-0.8,0.2-1.7,0.3-2.6,0.3c-0.9,0-1.8-0.1-2.6-0.3L23.2,56.4z"/>
					<path class="st1" d="M16.8,41.5c0.9-1.5,2.2-2.8,3.7-3.7l0.5,0.5l-3.7,3.7L16.8,41.5z"/>
					<path class="st1" d="M20.5,37.9c-1.5,0.9-2.8,2.2-3.7,3.7l-4.7-5.4l3-3L20.5,37.9z"/>
					<path class="st1" d="M20.5,56l-5.4,4.7l-3-3l4.7-5.4C17.7,53.8,19,55.1,20.5,56z"/>
					<path class="st1" d="M17.3,51.8l3.7,3.7L20.5,56c-1.5-0.9-2.8-2.2-3.7-3.7L17.3,51.8z"/>
					<path class="st1" d="M16.4,44.3v5.3l-0.7,0c-0.2-0.8-0.3-1.7-0.3-2.6c0-0.9,0.1-1.8,0.3-2.6L16.4,44.3z"/>
					<path class="st1" d="M8.5,44.8l7.2-0.5c-0.2,0.8-0.3,1.7-0.3,2.6c0,0.9,0.1,1.8,0.3,2.6l-7.2-0.5V44.8z"/>
				</g>
				<g>
				</g>
			</g>
		</g>
		<g>
			<g id="XMLID_2_">
				<g>
					<path class="st1" d="M71.5,35.7l-1.2,4.1l-7-1.5c0.4-0.7,0.8-1.5,1-2.4s0.4-1.7,0.4-2.6L71.5,35.7z"/>
					<path class="st1" d="M70.5,26.4l-6.1,3.9c-0.4-1.7-1.3-3.3-2.5-4.5l6.5-3.1L70.5,26.4z"/>
					<path class="st1" d="M61.4,40.7l3.1,6.5l-3.7,2l-3.9-6.1C58.6,42.7,60.2,41.9,61.4,40.7z"/>
					<path class="st1" d="M62.6,38.1l1.5-5.1l0.7,0.2c0,0.9-0.2,1.7-0.4,2.6s-0.6,1.7-1,2.4L62.6,38.1z"/>
					<path class="st1" d="M63.3,38.3c-0.5,0.9-1.2,1.7-1.9,2.4L61.1,40l-4.6,2.6l0.4,0.6c-1,0.3-2,0.4-3,0.4l0.2-0.7l-5.1-1.5
						l-0.2,0.7c-0.9-0.5-1.7-1.2-2.4-1.9l0.7-0.3l-2.6-4.6L44,35.6c-0.3-1-0.4-2-0.3-3l0.7,0.2l1.5-5.1l-0.7-0.2
						c0.5-0.9,1.2-1.7,1.9-2.4l0.3,0.7l4.6-2.6l-0.4-0.6c1-0.3,2-0.4,3-0.3l-0.2,0.7l5.1,1.5l0.2-0.7c0.9,0.5,1.7,1.2,2.4,1.9
						L61.3,26l2.6,4.6l0.6-0.4c0.3,1,0.4,2,0.3,3L64.1,33l-1.5,5.1L63.3,38.3z M52.8,38c2.8,0.8,5.7-0.8,6.5-3.6
						c0.8-2.8-0.8-5.7-3.6-6.5c-2.8-0.8-5.7,0.8-6.5,3.6C48.3,34.3,49.9,37.2,52.8,38z"/>
					<path class="st1" d="M61.1,40l0.3,0.7c-1.3,1.2-2.8,2.1-4.5,2.5l-0.4-0.6L61.1,40z"/>
					<path class="st1" d="M64.4,30.3l-0.6,0.4L61.3,26l0.7-0.3C63.1,27,64,28.6,64.4,30.3z"/>
					<path class="st1" d="M59.5,23.8l-0.2,0.7l-5.1-1.5l0.2-0.7c0.9,0,1.7,0.2,2.6,0.4S58.8,23.4,59.5,23.8z"/>
					<path class="st1" d="M61.1,16.8l-1.5,7c-0.7-0.4-1.5-0.8-2.4-1s-1.7-0.4-2.6-0.4l2.4-6.8L61.1,16.8z"/>
					<path class="st1" d="M53.9,43.5l-2.4,6.8l-4.1-1.2l1.5-7c0.7,0.4,1.5,0.8,2.4,1S53,43.5,53.9,43.5z"/>
					<path class="st1" d="M51.3,43.1c-0.9-0.2-1.7-0.6-2.4-1l0.2-0.7l5.1,1.5l-0.2,0.7C53,43.5,52.1,43.4,51.3,43.1z"/>
					<path class="st1" d="M51.9,23.4l-4.6,2.6L47,25.3c1.3-1.2,2.8-2.1,4.5-2.5L51.9,23.4z"/>
					<path class="st1" d="M51.5,22.7c-1.7,0.4-3.3,1.3-4.5,2.5l-3.1-6.5l3.7-2L51.5,22.7z"/>
					<path class="st1" d="M46.5,40.2L40,43.2l-2-3.7l6.1-3.9C44.5,37.3,45.3,38.9,46.5,40.2z"/>
					<path class="st1" d="M46.5,40.2c-1.2-1.3-2.1-2.8-2.5-4.5l0.6-0.4l2.6,4.6L46.5,40.2z"/>
					<path class="st1" d="M45.8,27.8l-1.5,5.1l-0.7-0.2c0-0.9,0.2-1.7,0.4-2.6s0.6-1.7,1-2.4L45.8,27.8z"/>
					<path class="st1" d="M38,26.1l7,1.5c-0.4,0.7-0.8,1.5-1,2.4s-0.4,1.7-0.4,2.6l-6.8-2.4L38,26.1z"/>
				</g>
				<g>
				</g>
			</g>
		</g>
	</g>
</g>
</svg>
