<?xml version="1.0" encoding="utf-8"?>
<!-- Generator: Adobe Illustrator 19.1.0, SVG Export Plug-In . SVG Version: 6.00 Build 0)  -->
<svg version="1.1" id="图层_1" xmlns="http://www.w3.org/2000/svg" xmlns:xlink="http://www.w3.org/1999/xlink" x="0px" y="0px"
	 viewBox="0 0 785 390" style="enable-background:new 0 0 785 390;" xml:space="preserve">
<style type="text/css">
	.st0{opacity:0.3;}
	.st1{fill:url(#SVGID_1_);}
	.st2{fill:none;stroke:#49BAA7;stroke-width:3;stroke-miterlimit:10;}
</style>
<g class="st0">
	<linearGradient id="SVGID_1_" gradientUnits="userSpaceOnUse" x1="397.4248" y1="347.1014" x2="397.4248" y2="26.6683">
		<stop  offset="0" style="stop-color:#040000"/>
		<stop  offset="1" style="stop-color:#026670"/>
	</linearGradient>
	<polygon class="st1" points="777.5,355.2 249,355.2 225,340.4 84.5,340.4 58.7,355.2 18.6,355.2 18.6,181.3 5.8,169.7 5.8,47.2 
		18.6,34.7 18.6,34.7 325.8,34.7 354.3,50.5 554.3,50.5 583.6,34.7 765.8,34.7 777.5,47.2 777.5,196.3 789.1,211.1 789.1,295.2 
		777.5,308.5 	"/>
</g>
<g>
	<polygon class="st2" points="777.5,355.2 249,355.2 225,340.4 84.5,340.4 58.7,355.2 18.6,355.2 18.6,181.3 5.8,169.7 5.8,47.2 
		18.6,34.7 18.6,34.7 325.8,34.7 354.3,50.5 554.3,50.5 583.6,34.7 765.8,34.7 777.5,47.2 777.5,196.3 789.1,211.1 789.1,295.2 
		777.5,308.5 	"/>
</g>
</svg>
