<?xml version="1.0" encoding="utf-8"?>
<!-- Generator: Adobe Illustrator 19.1.0, SVG Export Plug-In . SVG Version: 6.00 Build 0)  -->
<svg version="1.1" id="图层_1" xmlns="http://www.w3.org/2000/svg" xmlns:xlink="http://www.w3.org/1999/xlink" x="0px" y="0px"
	 viewBox="0 0 783 320" style="enable-background:new 0 0 783 320;" xml:space="preserve">
<style type="text/css">
	.st0{opacity:0.3;}
	.st1{fill:url(#SVGID_1_);}
	.st2{fill:none;stroke:#49BAA7;stroke-width:3;stroke-miterlimit:10;}
</style>
<g class="st0">
	<linearGradient id="SVGID_1_" gradientUnits="userSpaceOnUse" x1="391.4248" y1="309.5179" x2="391.4248" y2="-5.4741">
		<stop  offset="0" style="stop-color:#040000"/>
		<stop  offset="1" style="stop-color:#026670"/>
	</linearGradient>
	<polygon class="st1" points="765.1,317.4 245.5,317.4 221.9,302.9 83.8,302.9 58.5,317.4 19.1,317.4 19.1,146.5 6.4,135.2 
		6.4,14.7 19.1,2.5 19.1,2.5 321,2.5 349,17.9 545.6,17.9 574.4,2.5 753.5,2.5 765.1,14.7 765.1,161.3 776.4,175.9 776.4,258.5 
		765.1,271.6 	"/>
</g>
<g>
	<polygon class="st2" points="765.1,317.4 245.5,317.4 221.9,302.9 83.8,302.9 58.5,317.4 19.1,317.4 19.1,146.5 6.4,135.2 
		6.4,14.7 19.1,2.5 19.1,2.5 321,2.5 349,17.9 545.6,17.9 574.4,2.5 753.5,2.5 765.1,14.7 765.1,161.3 776.4,175.9 776.4,258.5 
		765.1,271.6 	"/>
</g>
</svg>
