<?xml version="1.0" encoding="utf-8"?>
<!-- Generator: Adobe Illustrator 19.1.0, SVG Export Plug-In . SVG Version: 6.00 Build 0)  -->
<svg version="1.1" id="图层_1" xmlns="http://www.w3.org/2000/svg" xmlns:xlink="http://www.w3.org/1999/xlink" x="0px" y="0px"
	 viewBox="0 0 990 400" style="enable-background:new 0 0 990 400;" xml:space="preserve">
<style type="text/css">
	.st0{opacity:0.3;}
	.st1{fill:url(#SVGID_1_);}
	.st2{fill:none;stroke:#49BAA7;stroke-width:3;stroke-miterlimit:10;}
</style>
<g class="st0">
	<linearGradient id="SVGID_1_" gradientUnits="userSpaceOnUse" x1="495.3447" y1="386.7957" x2="495.3447" y2="-5.8537">
		<stop  offset="0" style="stop-color:#040000"/>
		<stop  offset="1" style="stop-color:#026670"/>
	</linearGradient>
	<polygon class="st1" points="976.2,396.7 246.1,396.7 222.1,381.9 81.6,381.9 55.8,396.7 15.7,396.7 15.7,175.7 2.9,164.1 
		2.9,41.6 15.7,29.2 15.7,4 123.2,4 171.4,29.2 976.2,29.2 976.2,190.8 987.8,205.6 987.8,336.7 976.2,350 	"/>
</g>
<g>
	<polygon class="st2" points="976.2,396.7 246.1,396.7 222.1,381.9 81.6,381.9 55.8,396.7 15.7,396.7 15.7,175.7 2.9,164.1 
		2.9,41.6 15.7,29.2 15.7,4 123.2,4 171.4,29.2 976.2,29.2 976.2,190.8 987.8,205.6 987.8,336.7 976.2,350 	"/>
</g>
</svg>
